<?xml version="1.0" encoding="UTF-8" standalone="no"?>
<!DOCTYPE svg PUBLIC "-//W3C//DTD SVG 1.1//EN"
 "http://www.w3.org/Graphics/SVG/1.1/DTD/svg11.dtd">
<!-- Generated by graphviz version 2.38.0 (20140413.2041)
 -->
<!-- Title: controllers_diagram Pages: 1 -->
<svg width="580pt" height="547pt"
 viewBox="0.00 0.00 579.71 547.00" xmlns="http://www.w3.org/2000/svg" xmlns:xlink="http://www.w3.org/1999/xlink">
<g id="graph0" class="graph" transform="scale(1 1) rotate(0) translate(179.545 287.5)">
<title>controllers_diagram</title>
<polygon fill="none" stroke="none" points="-179.545,259.5 -179.545,-287.5 400.162,-287.5 400.162,259.5 -179.545,259.5"/>
<!-- _diagram_info -->
<g id="node1" class="node"><title>_diagram_info</title>
<text text-anchor="start" x="-152.45" y="-219.1" font-family="Times,serif" font-size="13.00">Controllers diagram</text>
<text text-anchor="start" x="-152.45" y="-206.1" font-family="Times,serif" font-size="13.00">Date: Nov 21 2016 &#45; 21:16</text>
<text text-anchor="start" x="-152.45" y="-193.1" font-family="Times,serif" font-size="13.00">Migration version: 20161122000225</text>
<text text-anchor="start" x="-152.45" y="-180.1" font-family="Times,serif" font-size="13.00">Generated by RailRoady 1.5.2</text>
<text text-anchor="start" x="-152.45" y="-167.1" font-family="Times,serif" font-size="13.00">http://railroady.prestonlee.com</text>
</g>
<!-- ApplicationController -->
<g id="node2" class="node"><title>ApplicationController</title>
<path fill="none" stroke="black" d="M252.179,255C252.179,255 367.821,255 367.821,255 373.821,255 379.821,249 379.821,243 379.821,243 379.821,175 379.821,175 379.821,169 373.821,163 367.821,163 367.821,163 252.179,163 252.179,163 246.179,163 240.179,169 240.179,175 240.179,175 240.179,243 240.179,243 240.179,249 246.179,255 252.179,255"/>
<text text-anchor="middle" x="310" y="178.2" font-family="Times,serif" font-size="14.00">ApplicationController</text>
<polyline fill="none" stroke="black" points="240.179,185 379.821,185 "/>
<polyline fill="none" stroke="black" points="240.179,209 379.821,209 "/>
<polyline fill="none" stroke="black" points="240.179,233 379.821,233 "/>
<text text-anchor="start" x="248.179" y="248.2" font-family="Times,serif" font-size="14.00">_layout</text>
</g>
<!-- SongsController -->
<g id="node3" class="node"><title>SongsController</title>
<path fill="none" stroke="black" d="M92.1104,-81C92.1104,-81 175.89,-81 175.89,-81 181.89,-81 187.89,-87 187.89,-93 187.89,-93 187.89,-271 187.89,-271 187.89,-277 181.89,-283 175.89,-283 175.89,-283 92.1104,-283 92.1104,-283 86.1104,-283 80.1104,-277 80.1104,-271 80.1104,-271 80.1104,-93 80.1104,-93 80.1104,-87 86.1104,-81 92.1104,-81"/>
<text text-anchor="middle" x="134" y="-267.8" font-family="Times,serif" font-size="14.00">SongsController</text>
<polyline fill="none" stroke="black" points="80.1104,-261 187.89,-261 "/>
<text text-anchor="start" x="88.1104" y="-245.8" font-family="Times,serif" font-size="14.00">index</text>
<text text-anchor="start" x="88.1104" y="-231.8" font-family="Times,serif" font-size="14.00">destroy</text>
<text text-anchor="start" x="88.1104" y="-217.8" font-family="Times,serif" font-size="14.00">edit</text>
<text text-anchor="start" x="88.1104" y="-203.8" font-family="Times,serif" font-size="14.00">create</text>
<text text-anchor="start" x="88.1104" y="-189.8" font-family="Times,serif" font-size="14.00">new</text>
<text text-anchor="start" x="88.1104" y="-175.8" font-family="Times,serif" font-size="14.00">show</text>
<text text-anchor="start" x="88.1104" y="-161.8" font-family="Times,serif" font-size="14.00">update</text>
<polyline fill="none" stroke="black" points="80.1104,-155 187.89,-155 "/>
<polyline fill="none" stroke="black" points="80.1104,-131 187.89,-131 "/>
<text text-anchor="start" x="88.1104" y="-115.8" font-family="Times,serif" font-size="14.00">_layout</text>
<text text-anchor="start" x="88.1104" y="-101.8" font-family="Times,serif" font-size="14.00">set_song</text>
<text text-anchor="start" x="88.1104" y="-87.8" font-family="Times,serif" font-size="14.00">song_params</text>
</g>
<!-- Users::ConfirmationsController -->
<g id="node4" class="node"><title>Users::ConfirmationsController</title>
<path fill="none" stroke="black" d="M140.338,127C140.338,127 309.662,127 309.662,127 315.662,127 321.662,121 321.662,115 321.662,115 321.662,47 321.662,47 321.662,41 315.662,35 309.662,35 309.662,35 140.338,35 140.338,35 134.338,35 128.338,41 128.338,47 128.338,47 128.338,115 128.338,115 128.338,121 134.338,127 140.338,127"/>
<text text-anchor="middle" x="225" y="50.2" font-family="Times,serif" font-size="14.00">Users::ConfirmationsController</text>
<polyline fill="none" stroke="black" points="128.338,57 321.662,57 "/>
<polyline fill="none" stroke="black" points="128.338,81 321.662,81 "/>
<polyline fill="none" stroke="black" points="128.338,105 321.662,105 "/>
<text text-anchor="start" x="136.338" y="120.2" font-family="Times,serif" font-size="14.00">_layout</text>
</g>
<!-- Users::OmniauthCallbacksController -->
<g id="node5" class="node"><title>Users::OmniauthCallbacksController</title>
<path fill="none" stroke="black" d="M-116.204,47C-116.204,47 84.2036,47 84.2036,47 90.2036,47 96.2036,41 96.2036,35 96.2036,35 96.2036,-33 96.2036,-33 96.2036,-39 90.2036,-45 84.2036,-45 84.2036,-45 -116.204,-45 -116.204,-45 -122.204,-45 -128.204,-39 -128.204,-33 -128.204,-33 -128.204,35 -128.204,35 -128.204,41 -122.204,47 -116.204,47"/>
<text text-anchor="middle" x="-16" y="-29.8" font-family="Times,serif" font-size="14.00">Users::OmniauthCallbacksController</text>
<polyline fill="none" stroke="black" points="-128.204,-23 96.2036,-23 "/>
<polyline fill="none" stroke="black" points="-128.204,1 96.2036,1 "/>
<polyline fill="none" stroke="black" points="-128.204,25 96.2036,25 "/>
<text text-anchor="start" x="-120.204" y="40.2" font-family="Times,serif" font-size="14.00">_layout</text>
</g>
<!-- Users::PasswordsController -->
<g id="node6" class="node"><title>Users::PasswordsController</title>
<path fill="none" stroke="black" d="M235.838,-1C235.838,-1 384.162,-1 384.162,-1 390.162,-1 396.162,-7 396.162,-13 396.162,-13 396.162,-81 396.162,-81 396.162,-87 390.162,-93 384.162,-93 384.162,-93 235.838,-93 235.838,-93 229.838,-93 223.838,-87 223.838,-81 223.838,-81 223.838,-13 223.838,-13 223.838,-7 229.838,-1 235.838,-1"/>
<text text-anchor="middle" x="310" y="-77.8" font-family="Times,serif" font-size="14.00">Users::PasswordsController</text>
<polyline fill="none" stroke="black" points="223.838,-71 396.162,-71 "/>
<polyline fill="none" stroke="black" points="223.838,-47 396.162,-47 "/>
<polyline fill="none" stroke="black" points="223.838,-23 396.162,-23 "/>
<text text-anchor="start" x="231.838" y="-7.8" font-family="Times,serif" font-size="14.00">_layout</text>
</g>
<!-- Users::RegistrationsController -->
<g id="node7" class="node"><title>Users::RegistrationsController</title>
<path fill="none" stroke="black" d="M-163.545,175C-163.545,175 -0.455078,175 -0.455078,175 5.54492,175 11.5449,169 11.5449,163 11.5449,163 11.5449,95 11.5449,95 11.5449,89 5.54492,83 -0.455078,83 -0.455078,83 -163.545,83 -163.545,83 -169.545,83 -175.545,89 -175.545,95 -175.545,95 -175.545,163 -175.545,163 -175.545,169 -169.545,175 -163.545,175"/>
<text text-anchor="middle" x="-82" y="98.2" font-family="Times,serif" font-size="14.00">Users::RegistrationsController</text>
<polyline fill="none" stroke="black" points="-175.545,105 11.5449,105 "/>
<polyline fill="none" stroke="black" points="-175.545,129 11.5449,129 "/>
<polyline fill="none" stroke="black" points="-175.545,153 11.5449,153 "/>
<text text-anchor="start" x="-167.545" y="168.2" font-family="Times,serif" font-size="14.00">_layout</text>
</g>
<!-- Users::SessionsController -->
<g id="node8" class="node"><title>Users::SessionsController</title>
<path fill="none" stroke="black" d="M236.279,-129C236.279,-129 373.721,-129 373.721,-129 379.721,-129 385.721,-135 385.721,-141 385.721,-141 385.721,-209 385.721,-209 385.721,-215 379.721,-221 373.721,-221 373.721,-221 236.279,-221 236.279,-221 230.279,-221 224.279,-215 224.279,-209 224.279,-209 224.279,-141 224.279,-141 224.279,-135 230.279,-129 236.279,-129"/>
<text text-anchor="middle" x="305" y="-205.8" font-family="Times,serif" font-size="14.00">Users::SessionsController</text>
<polyline fill="none" stroke="black" points="224.279,-199 385.721,-199 "/>
<polyline fill="none" stroke="black" points="224.279,-175 385.721,-175 "/>
<polyline fill="none" stroke="black" points="224.279,-151 385.721,-151 "/>
<text text-anchor="start" x="232.279" y="-135.8" font-family="Times,serif" font-size="14.00">_layout</text>
</g>
<!-- Users::UnlocksController -->
<g id="node9" class="node"><title>Users::UnlocksController</title>
<path fill="none" stroke="black" d="M60.0654,255C60.0654,255 195.935,255 195.935,255 201.935,255 207.935,249 207.935,243 207.935,243 207.935,175 207.935,175 207.935,169 201.935,163 195.935,163 195.935,163 60.0654,163 60.0654,163 54.0654,163 48.0654,169 48.0654,175 48.0654,175 48.0654,243 48.0654,243 48.0654,249 54.0654,255 60.0654,255"/>
<text text-anchor="middle" x="128" y="178.2" font-family="Times,serif" font-size="14.00">Users::UnlocksController</text>
<polyline fill="none" stroke="black" points="48.0654,185 207.935,185 "/>
<polyline fill="none" stroke="black" points="48.0654,209 207.935,209 "/>
<polyline fill="none" stroke="black" points="48.0654,233 207.935,233 "/>
<text text-anchor="start" x="56.0654" y="248.2" font-family="Times,serif" font-size="14.00">_layout</text>
</g>
</g>
</svg>
