<?xml version="1.0" encoding="UTF-8" standalone="no"?>
<!DOCTYPE svg PUBLIC "-//W3C//DTD SVG 1.1//EN"
 "http://www.w3.org/Graphics/SVG/1.1/DTD/svg11.dtd">
<!-- Generated by graphviz version 2.38.0 (20140413.2041)
 -->
<!-- Title: models_diagram Pages: 1 -->
<svg width="482pt" height="297pt"
 viewBox="0.00 0.00 482.44 297.00" xmlns="http://www.w3.org/2000/svg" xmlns:xlink="http://www.w3.org/1999/xlink">
<g id="graph0" class="graph" transform="scale(1 1) rotate(0) translate(4 293)">
<title>models_diagram</title>
<polygon fill="none" stroke="none" points="-4,4 -4,-293 478.438,-293 478.438,4 -4,4"/>
<!-- _diagram_info -->
<g id="node1" class="node"><title>_diagram_info</title>
<text text-anchor="start" x="8" y="-274.6" font-family="Times,serif" font-size="13.00">Models diagram</text>
<text text-anchor="start" x="8" y="-261.6" font-family="Times,serif" font-size="13.00">Date: Nov 21 2016 &#45; 21:16</text>
<text text-anchor="start" x="8" y="-248.6" font-family="Times,serif" font-size="13.00">Migration version: 20161122000225</text>
<text text-anchor="start" x="8" y="-235.6" font-family="Times,serif" font-size="13.00">Generated by RailRoady 1.5.2</text>
<text text-anchor="start" x="8" y="-222.6" font-family="Times,serif" font-size="13.00">http://railroady.prestonlee.com</text>
</g>
<!-- ApplicationRecord -->
<g id="node2" class="node"><title>ApplicationRecord</title>
<ellipse fill="none" stroke="black" cx="302.45" cy="-252.5" rx="77.2916" ry="18"/>
<text text-anchor="middle" x="302.45" y="-248.3" font-family="Times,serif" font-size="14.00">ApplicationRecord</text>
</g>
<!-- Genre -->
<g id="node3" class="node"><title>Genre</title>
<ellipse fill="none" stroke="black" cx="429.45" cy="-252.5" rx="31.9219" ry="18"/>
<text text-anchor="middle" x="429.45" y="-248.3" font-family="Times,serif" font-size="14.00">Genre</text>
</g>
<!-- Song -->
<g id="node4" class="node"><title>Song</title>
<ellipse fill="none" stroke="black" cx="429.45" cy="-162" rx="28.0822" ry="18"/>
<text text-anchor="middle" x="429.45" y="-157.8" font-family="Times,serif" font-size="14.00">Song</text>
</g>
<!-- Genre&#45;&gt;Song -->
<g id="edge1" class="edge"><title>Genre&#45;&gt;Song</title>
<path fill="none" stroke="#eca6e1" d="M429.45,-226.189C429.45,-214.971 429.45,-201.752 429.45,-190.311"/>
<ellipse fill="none" stroke="#eca6e1" cx="429.45" cy="-230.436" rx="4" ry="4"/>
<polygon fill="#eca6e1" stroke="#eca6e1" points="429.45,-190.011 433.95,-180.011 429.45,-185.011 429.45,-180.011 429.45,-180.011 429.45,-180.011 429.45,-185.011 424.95,-180.011 429.45,-190.011 429.45,-190.011"/>
</g>
<!-- User -->
<g id="node5" class="node"><title>User</title>
<ellipse fill="none" stroke="black" cx="402.45" cy="-90" rx="27" ry="18"/>
<text text-anchor="middle" x="402.45" y="-85.8" font-family="Times,serif" font-size="14.00">User</text>
</g>
<!-- Song&#45;&gt;User -->
<g id="edge3" class="edge"><title>Song&#45;&gt;User</title>
<path fill="none" stroke="#7041e0" d="M419.443,-135.056C417.206,-129.258 414.832,-123.104 412.591,-117.291"/>
<polygon fill="#7041e0" stroke="#7041e0" points="419.452,-135.081 418.853,-146.03 421.252,-139.746 423.051,-144.411 423.051,-144.411 423.051,-144.411 421.252,-139.746 427.25,-142.792 419.452,-135.081 419.452,-135.081"/>
<polygon fill="#7041e0" stroke="#7041e0" points="412.589,-117.286 413.188,-106.337 410.789,-112.621 408.99,-107.956 408.99,-107.956 408.99,-107.956 410.789,-112.621 404.791,-109.576 412.589,-117.286 412.589,-117.286"/>
</g>
<!-- UserSong -->
<g id="node6" class="node"><title>UserSong</title>
<ellipse fill="none" stroke="black" cx="429.45" cy="-18" rx="44.9768" ry="18"/>
<text text-anchor="middle" x="429.45" y="-13.8" font-family="Times,serif" font-size="14.00">UserSong</text>
</g>
<!-- Song&#45;&gt;UserSong -->
<g id="edge2" class="edge"><title>Song&#45;&gt;UserSong</title>
<path fill="none" stroke="#e7761a" d="M434.6,-135.907C436.167,-127.121 437.677,-117.162 438.45,-108 439.794,-92.0566 439.794,-87.9434 438.45,-72 437.733,-63.4991 436.381,-54.3119 434.938,-46.0122"/>
<ellipse fill="none" stroke="#e7761a" cx="433.839" cy="-139.976" rx="4.00001" ry="4.00001"/>
<polygon fill="#e7761a" stroke="#e7761a" points="434.922,-45.9257 437.528,-35.2741 434.013,-41.0091 433.104,-36.0925 433.104,-36.0925 433.104,-36.0925 434.013,-41.0091 428.679,-36.9109 434.922,-45.9257 434.922,-45.9257"/>
</g>
<!-- User&#45;&gt;UserSong -->
<g id="edge4" class="edge"><title>User&#45;&gt;UserSong</title>
<path fill="none" stroke="#412c86" d="M411.793,-64.7779C414.197,-58.544 416.797,-51.8046 419.242,-45.4634"/>
<ellipse fill="none" stroke="#412c86" cx="410.288" cy="-68.679" rx="4.00001" ry="4.00001"/>
<polygon fill="#412c86" stroke="#412c86" points="419.311,-45.2862 427.108,-37.5757 421.11,-40.6212 422.909,-35.9562 422.909,-35.9562 422.909,-35.9562 421.11,-40.6212 418.711,-34.3368 419.311,-45.2862 419.311,-45.2862"/>
</g>
</g>
</svg>
