<?xml version="1.0" encoding="UTF-8" standalone="no"?>
<!DOCTYPE svg PUBLIC "-//W3C//DTD SVG 1.1//EN"
 "http://www.w3.org/Graphics/SVG/1.1/DTD/svg11.dtd">
<!-- Generated by graphviz version 2.38.0 (20140413.2041)
 -->
<!-- Title: models_diagram Pages: 1 -->
<svg width="653pt" height="604pt"
 viewBox="0.00 0.00 653.31 604.00" xmlns="http://www.w3.org/2000/svg" xmlns:xlink="http://www.w3.org/1999/xlink">
<g id="graph0" class="graph" transform="scale(1 1) rotate(0) translate(4 600)">
<title>models_diagram</title>
<polygon fill="none" stroke="none" points="-4,4 -4,-600 649.312,-600 649.312,4 -4,4"/>
<!-- _diagram_info -->
<g id="node1" class="node"><title>_diagram_info</title>
<text text-anchor="start" x="8" y="-581.6" font-family="Times,serif" font-size="13.00">Models diagram</text>
<text text-anchor="start" x="8" y="-568.6" font-family="Times,serif" font-size="13.00">Date: Nov 21 2016 &#45; 21:15</text>
<text text-anchor="start" x="8" y="-555.6" font-family="Times,serif" font-size="13.00">Migration version: 20161122000225</text>
<text text-anchor="start" x="8" y="-542.6" font-family="Times,serif" font-size="13.00">Generated by RailRoady 1.5.2</text>
<text text-anchor="start" x="8" y="-529.6" font-family="Times,serif" font-size="13.00">http://railroady.prestonlee.com</text>
</g>
<!-- ApplicationRecord -->
<g id="node2" class="node"><title>ApplicationRecord</title>
<ellipse fill="none" stroke="black" cx="302.45" cy="-559.5" rx="77.2916" ry="18"/>
<text text-anchor="middle" x="302.45" y="-555.3" font-family="Times,serif" font-size="14.00">ApplicationRecord</text>
</g>
<!-- Genre -->
<g id="node3" class="node"><title>Genre</title>
<path fill="none" stroke="black" d="M409.587,-523.5C409.587,-523.5 633.312,-523.5 633.312,-523.5 639.312,-523.5 645.312,-529.5 645.312,-535.5 645.312,-535.5 645.312,-583.5 645.312,-583.5 645.312,-589.5 639.312,-595.5 633.312,-595.5 633.312,-595.5 409.587,-595.5 409.587,-595.5 403.587,-595.5 397.587,-589.5 397.587,-583.5 397.587,-583.5 397.587,-535.5 397.587,-535.5 397.587,-529.5 403.587,-523.5 409.587,-523.5"/>
<text text-anchor="middle" x="521.45" y="-580.3" font-family="Times,serif" font-size="14.00">Genre</text>
<polyline fill="none" stroke="black" points="397.587,-573.5 645.312,-573.5 "/>
<text text-anchor="start" x="405.587" y="-558.3" font-family="Times,serif" font-size="14.00">id :integer</text>
<text text-anchor="start" x="405.587" y="-544.3" font-family="Times,serif" font-size="14.00">created_at :timestamp without time zone</text>
<text text-anchor="start" x="405.587" y="-530.3" font-family="Times,serif" font-size="14.00">updated_at :timestamp without time zone</text>
</g>
<!-- Song -->
<g id="node4" class="node"><title>Song</title>
<path fill="none" stroke="black" d="M409.587,-358.5C409.587,-358.5 633.312,-358.5 633.312,-358.5 639.312,-358.5 645.312,-364.5 645.312,-370.5 645.312,-370.5 645.312,-474.5 645.312,-474.5 645.312,-480.5 639.312,-486.5 633.312,-486.5 633.312,-486.5 409.587,-486.5 409.587,-486.5 403.587,-486.5 397.587,-480.5 397.587,-474.5 397.587,-474.5 397.587,-370.5 397.587,-370.5 397.587,-364.5 403.587,-358.5 409.587,-358.5"/>
<text text-anchor="middle" x="521.45" y="-471.3" font-family="Times,serif" font-size="14.00">Song</text>
<polyline fill="none" stroke="black" points="397.587,-464.5 645.312,-464.5 "/>
<text text-anchor="start" x="405.587" y="-449.3" font-family="Times,serif" font-size="14.00">gene_id :character varying</text>
<text text-anchor="start" x="405.587" y="-435.3" font-family="Times,serif" font-size="14.00">name :character varying</text>
<text text-anchor="start" x="405.587" y="-421.3" font-family="Times,serif" font-size="14.00">duration :character varying</text>
<text text-anchor="start" x="405.587" y="-407.3" font-family="Times,serif" font-size="14.00">id :integer</text>
<text text-anchor="start" x="405.587" y="-393.3" font-family="Times,serif" font-size="14.00">genre_id :integer</text>
<text text-anchor="start" x="405.587" y="-379.3" font-family="Times,serif" font-size="14.00">created_at :timestamp without time zone</text>
<text text-anchor="start" x="405.587" y="-365.3" font-family="Times,serif" font-size="14.00">updated_at :timestamp without time zone</text>
</g>
<!-- Genre&#45;&gt;Song -->
<g id="edge1" class="edge"><title>Genre&#45;&gt;Song</title>
<path fill="none" stroke="#b9d813" d="M521.45,-515.236C521.45,-509.405 521.45,-503.295 521.45,-497.116"/>
<ellipse fill="none" stroke="#b9d813" cx="521.45" cy="-519.383" rx="4" ry="4"/>
<polygon fill="#b9d813" stroke="#b9d813" points="521.45,-496.689 525.95,-486.689 521.45,-491.689 521.45,-486.689 521.45,-486.689 521.45,-486.689 521.45,-491.689 516.95,-486.689 521.45,-496.689 521.45,-496.689"/>
</g>
<!-- User -->
<g id="node5" class="node"><title>User</title>
<path fill="none" stroke="black" d="M279.815,-109.5C279.815,-109.5 575.084,-109.5 575.084,-109.5 581.084,-109.5 587.084,-115.5 587.084,-121.5 587.084,-121.5 587.084,-309.5 587.084,-309.5 587.084,-315.5 581.084,-321.5 575.084,-321.5 575.084,-321.5 279.815,-321.5 279.815,-321.5 273.815,-321.5 267.815,-315.5 267.815,-309.5 267.815,-309.5 267.815,-121.5 267.815,-121.5 267.815,-115.5 273.815,-109.5 279.815,-109.5"/>
<text text-anchor="middle" x="427.45" y="-306.3" font-family="Times,serif" font-size="14.00">User</text>
<polyline fill="none" stroke="black" points="267.815,-299.5 587.084,-299.5 "/>
<text text-anchor="start" x="275.815" y="-284.3" font-family="Times,serif" font-size="14.00">updated_at :timestamp without time zone</text>
<text text-anchor="start" x="275.815" y="-270.3" font-family="Times,serif" font-size="14.00">email :character varying</text>
<text text-anchor="start" x="275.815" y="-256.3" font-family="Times,serif" font-size="14.00">encrypted_password :character varying</text>
<text text-anchor="start" x="275.815" y="-242.3" font-family="Times,serif" font-size="14.00">reset_password_token :character varying</text>
<text text-anchor="start" x="275.815" y="-228.3" font-family="Times,serif" font-size="14.00">reset_password_sent_at :timestamp without time zone</text>
<text text-anchor="start" x="275.815" y="-214.3" font-family="Times,serif" font-size="14.00">remember_created_at :timestamp without time zone</text>
<text text-anchor="start" x="275.815" y="-200.3" font-family="Times,serif" font-size="14.00">sign_in_count :integer</text>
<text text-anchor="start" x="275.815" y="-186.3" font-family="Times,serif" font-size="14.00">current_sign_in_at :timestamp without time zone</text>
<text text-anchor="start" x="275.815" y="-172.3" font-family="Times,serif" font-size="14.00">last_sign_in_at :timestamp without time zone</text>
<text text-anchor="start" x="275.815" y="-158.3" font-family="Times,serif" font-size="14.00">current_sign_in_ip :inet</text>
<text text-anchor="start" x="275.815" y="-144.3" font-family="Times,serif" font-size="14.00">last_sign_in_ip :inet</text>
<text text-anchor="start" x="275.815" y="-130.3" font-family="Times,serif" font-size="14.00">created_at :timestamp without time zone</text>
<text text-anchor="start" x="275.815" y="-116.3" font-family="Times,serif" font-size="14.00">id :integer</text>
</g>
<!-- Song&#45;&gt;User -->
<g id="edge3" class="edge"><title>Song&#45;&gt;User</title>
<path fill="none" stroke="#766e29" d="M488.282,-349.166C485.536,-343.178 482.721,-337.038 479.879,-330.841"/>
<polygon fill="#766e29" stroke="#766e29" points="488.311,-349.231 488.389,-360.196 490.396,-353.776 492.48,-358.321 492.48,-358.321 492.48,-358.321 490.396,-353.776 496.57,-356.445 488.311,-349.231 488.311,-349.231"/>
<polygon fill="#766e29" stroke="#766e29" points="479.869,-330.819 479.792,-319.854 477.785,-326.274 475.701,-321.729 475.701,-321.729 475.701,-321.729 477.785,-326.274 471.611,-323.605 479.869,-330.819 479.869,-330.819"/>
</g>
<!-- UserSong -->
<g id="node6" class="node"><title>UserSong</title>
<path fill="none" stroke="black" d="M409.587,-0.5C409.587,-0.5 633.312,-0.5 633.312,-0.5 639.312,-0.5 645.312,-6.5 645.312,-12.5 645.312,-12.5 645.312,-60.5 645.312,-60.5 645.312,-66.5 639.312,-72.5 633.312,-72.5 633.312,-72.5 409.587,-72.5 409.587,-72.5 403.587,-72.5 397.587,-66.5 397.587,-60.5 397.587,-60.5 397.587,-12.5 397.587,-12.5 397.587,-6.5 403.587,-0.5 409.587,-0.5"/>
<text text-anchor="middle" x="521.45" y="-57.3" font-family="Times,serif" font-size="14.00">UserSong</text>
<polyline fill="none" stroke="black" points="397.587,-50.5 645.312,-50.5 "/>
<text text-anchor="start" x="405.587" y="-35.3" font-family="Times,serif" font-size="14.00">id :integer</text>
<text text-anchor="start" x="405.587" y="-21.3" font-family="Times,serif" font-size="14.00">created_at :timestamp without time zone</text>
<text text-anchor="start" x="405.587" y="-7.3" font-family="Times,serif" font-size="14.00">updated_at :timestamp without time zone</text>
</g>
<!-- Song&#45;&gt;UserSong -->
<g id="edge2" class="edge"><title>Song&#45;&gt;UserSong</title>
<path fill="none" stroke="#a5dc97" d="M582.492,-351.536C588.165,-342.097 593.052,-332.152 596.45,-322 626.494,-232.227 633.719,-196.022 596.45,-109 591.903,-98.3841 584.921,-88.5962 577.01,-79.8887"/>
<ellipse fill="none" stroke="#a5dc97" cx="580.361" cy="-354.929" rx="4.00002" ry="4.00002"/>
<polygon fill="#a5dc97" stroke="#a5dc97" points="576.823,-79.6959 573.085,-69.3865 573.34,-76.1085 569.857,-72.5211 569.857,-72.5211 569.857,-72.5211 573.34,-76.1085 566.628,-75.6558 576.823,-79.6959 576.823,-79.6959"/>
</g>
<!-- User&#45;&gt;UserSong -->
<g id="edge4" class="edge"><title>User&#45;&gt;UserSong</title>
<path fill="none" stroke="#5f174d" d="M486.98,-102.407C490.792,-95.2272 494.486,-88.2713 497.951,-81.7473"/>
<ellipse fill="none" stroke="#5f174d" cx="485.092" cy="-105.96" rx="4.00002" ry="4.00002"/>
<polygon fill="#5f174d" stroke="#5f174d" points="498.16,-81.3542 506.825,-74.633 500.505,-76.9383 502.85,-72.5224 502.85,-72.5224 502.85,-72.5224 500.505,-76.9383 498.876,-70.4117 498.16,-81.3542 498.16,-81.3542"/>
</g>
</g>
</svg>
